Coordinates
version=1
nRows=16
nColumns=63
inDegrees=yes

Units are S.I. units (second, meters, Newtons, ...)
If the header above contains a line with 'inDegrees', this indicates whether rotational values are in degrees (yes) or radians (no).

endheader
time	pelvis_tilt	pelvis_list	pelvis_rotation	pelvis_tx	pelvis_ty	pelvis_tz	hip_flexion_r	hip_adduction_r	hip_rotation_r	knee_angle_r	knee_angle_r_beta	ankle_angle_r	subtalar_angle_r	mtp_angle_r	hip_flexion_l	hip_adduction_l	hip_rotation_l	knee_angle_l	knee_angle_l_beta	ankle_angle_l	subtalar_angle_l	mtp_angle_l	L5_S1_Flex_Ext	L5_S1_Lat_Bending	L5_S1_axial_rotation	L4_L5_Flex_Ext	L4_L5_Lat_Bending	L4_L5_axial_rotation	L3_L4_Flex_Ext	L3_L4_Lat_Bending	L3_L4_axial_rotation	L2_L3_Flex_Ext	L2_L3_Lat_Bending	L2_L3_axial_rotation	L1_L2_Flex_Ext	L1_L2_Lat_Bending	L1_L2_axial_rotation	L1_T12_Flex_Ext	L1_T12_Lat_Bending	L1_T12_axial_rotation	Abs_r3	Abs_r2	Abs_r1	Abs_t1	Abs_t2	neck_flexion	neck_bending	neck_rotation	arm_flex_r	arm_add_r	arm_rot_r	elbow_flex_r	pro_sup_r	wrist_flex_r	wrist_dev_r	arm_flex_l	arm_add_l	arm_rot_l	elbow_flex_l	pro_sup_l	wrist_flex_l	wrist_dev_l
1.983333	1.655274	-6.151154	90.746753	0.223367	0.844193	0.684855	4.689715	3.769231	2.980558	12.154790	0.212141	36.413153	-8.035155	0.000000	0.630884	-2.215014	16.396296	1.381125	0.024105	34.537995	-4.889651	0.000000	0.205338	0.615549	-0.701546	0.381334	0.818681	-0.745392	0.337350	1.496647	-0.745392	0.234681	1.496647	-0.613853	0.190677	1.255228	-0.570006	0.117330	0.953486	-0.526159	1.466711	6.963218	-3.901788	0.000000	0.000000	27.540052	0.303746	4.144835	20.930840	-19.373003	74.502497	55.185753	78.222168	-0.266382	-14.031517	7.515784	-9.869842	42.360850	44.417946	76.760998	18.935639	-8.113093
2.000000	1.603571	-6.246509	90.674587	0.223501	0.843956	0.685185	4.943537	3.711008	2.658832	12.438190	0.217087	36.603818	-7.715320	0.000000	0.744859	-2.169477	16.417807	1.371004	0.023929	34.541788	-4.871538	0.000000	0.198555	0.612324	-0.675479	0.368737	0.814391	-0.717697	0.326206	1.488805	-0.717697	0.226929	1.488805	-0.591044	0.184378	1.248651	-0.548827	0.113454	0.948490	-0.506609	1.418259	6.926733	-3.756813	0.000000	0.000000	27.556050	-0.022243	3.423700	20.773924	-19.115538	73.452752	54.808008	78.867994	0.276965	-13.713742	7.511260	-9.856411	42.167398	44.534670	76.873699	18.256714	-7.910047
2.016667	1.544972	-6.340899	90.645241	0.223644	0.843710	0.685397	5.156331	3.655475	2.405496	12.650425	0.220792	36.735666	-7.535977	0.000000	0.848064	-2.117902	16.753581	1.347748	0.023523	34.475227	-5.192560	0.000000	0.191121	0.606837	-0.655379	0.354930	0.807093	-0.696340	0.313992	1.475463	-0.696340	0.218432	1.475463	-0.573457	0.177475	1.237461	-0.532496	0.109206	0.939990	-0.491534	1.365157	6.864657	-3.645022	0.000000	0.000000	27.581507	-0.376178	2.597969	20.591818	-18.856673	72.550945	54.424695	78.687773	0.860935	-13.402580	7.435001	-9.884067	41.990825	44.752116	76.685193	17.503802	-7.517824
2.033333	1.486116	-6.429857	90.672047	0.223776	0.843481	0.685481	5.319983	3.607268	2.201220	12.784871	0.223138	36.817037	-7.466361	0.000000	0.940845	-2.067005	17.301022	1.315585	0.022961	34.371742	-5.701962	0.000000	0.183397	0.600174	-0.644726	0.340586	0.798232	-0.685021	0.301302	1.459264	-0.685021	0.209604	1.459264	-0.564135	0.170302	1.223876	-0.523840	0.104793	0.929670	-0.483544	1.309983	6.789293	-3.585772	0.000000	0.000000	27.613239	-0.731889	1.733188	20.390823	-18.596422	71.803963	54.038519	77.656510	1.517833	-13.018681	7.304480	-9.936019	41.839804	45.018843	76.202982	16.743868	-6.963683
2.050000	1.432591	-6.511161	90.764011	0.223852	0.843290	0.685432	5.426101	3.569894	2.036863	12.827270	0.223878	36.837377	-7.512391	0.000000	1.024989	-2.021384	17.894895	1.278652	0.022317	34.274915	-6.176665	0.000000	0.176456	0.593611	-0.647147	0.327697	0.789502	-0.687593	0.289900	1.443305	-0.687593	0.201672	1.443305	-0.566253	0.163857	1.210491	-0.525807	0.100827	0.919503	-0.485360	1.260410	6.715044	-3.599236	0.000000	0.000000	27.646491	-1.066161	0.904960	20.204096	-18.340824	71.310275	53.645813	75.569436	2.255658	-12.585374	7.141609	-9.995606	41.747002	45.290659	75.403624	15.981872	-6.255766
2.066667	1.381603	-6.569387	90.882793	0.223959	0.843164	0.685244	5.455719	3.545703	1.975163	12.771297	0.222901	36.801067	-7.683592	0.000000	1.078305	-1.981844	18.458998	1.236118	0.021574	34.188977	-6.582474	0.000000	0.168231	0.586191	-0.656057	0.312421	0.779634	-0.697060	0.276386	1.425264	-0.697060	0.192271	1.425264	-0.574050	0.156219	1.195360	-0.533046	0.096127	0.908009	-0.492043	1.201655	6.631107	-3.648791	0.000000	0.000000	27.680920	-1.323317	0.156524	20.007209	-18.093794	70.971725	53.285341	72.907711	2.941322	-12.029959	6.957788	-10.058792	41.679871	45.559737	74.286627	15.291749	-5.337263
2.083333	1.339007	-6.604967	91.039703	0.224062	0.843103	0.684928	5.420783	3.527446	1.860890	12.640618	0.220620	36.753950	-7.793809	0.000000	1.105281	-1.954073	18.872884	1.194243	0.020843	34.142778	-6.762894	0.000000	0.159812	0.578528	-0.672153	0.296786	0.769442	-0.714163	0.262555	1.406632	-0.714163	0.182649	1.406632	-0.588134	0.148401	1.179734	-0.546125	0.091316	0.896139	-0.504115	1.141519	6.544421	-3.738315	0.000000	0.000000	27.711389	-1.519374	-0.518528	19.813345	-17.867044	70.836922	52.952255	69.661449	3.543183	-11.451310	6.799449	-10.133446	41.771955	45.781337	72.891472	14.628765	-4.399746
2.100000	1.299900	-6.620941	91.232260	0.224198	0.843095	0.684501	5.318504	3.526201	1.872556	12.423332	0.216828	36.634044	-8.084661	0.000000	1.109689	-1.934050	19.216240	1.156390	0.020183	34.118392	-6.838951	0.000000	0.151825	0.569643	-0.698377	0.281955	0.757625	-0.742026	0.249434	1.385029	-0.742026	0.173521	1.385029	-0.611080	0.140985	1.161616	-0.567431	0.086753	0.882377	-0.523783	1.084473	6.443913	-3.884165	0.000000	0.000000	27.732622	-1.631688	-1.076393	19.636339	-17.648424	70.907800	52.653041	65.909940	4.012038	-10.828257	6.621472	-10.213462	41.869801	45.992869	71.438267	13.997232	-3.428070
2.116667	1.278542	-6.614513	91.454813	0.224359	0.843141	0.683997	5.157993	3.551046	1.928111	12.139966	0.211882	36.466737	-8.439763	0.000000	1.091253	-1.937617	19.360448	1.124971	0.019634	34.155823	-6.656638	0.000000	0.143761	0.561385	-0.729341	0.266979	0.746642	-0.774925	0.236185	1.364952	-0.774925	0.164305	1.364952	-0.638174	0.133497	1.144777	-0.592590	0.082145	0.869586	-0.547006	1.026871	6.350501	-4.056377	0.000000	0.000000	27.746696	-1.696643	-1.555909	19.452442	-17.457964	71.091531	52.400780	61.886538	4.355768	-10.173354	6.476972	-10.297141	42.066200	46.164527	69.906174	13.430485	-2.435091
2.133333	1.282840	-6.586578	91.699313	0.224521	0.843234	0.683440	4.951617	3.602710	2.011757	11.811904	0.206157	36.254642	-8.833022	0.000000	1.050283	-1.969476	19.477918	1.100039	0.019199	34.201029	-6.478198	0.000000	0.135384	0.555613	-0.766358	0.251423	0.738965	-0.814256	0.222423	1.350917	-0.814256	0.154731	1.350917	-0.670564	0.125718	1.133006	-0.622666	0.077359	0.860644	-0.574769	0.967038	6.285205	-4.262256	0.000000	0.000000	27.759004	-1.728542	-1.927175	19.318005	-17.296374	71.498826	52.186112	57.353465	4.576061	-9.543342	6.363429	-10.379377	42.345555	46.307067	68.372566	12.878705	-1.447219
2.150000	1.305517	-6.552775	91.942675	0.224713	0.843353	0.682839	4.724779	3.674648	2.100463	11.453902	0.199908	36.019331	-9.205071	0.000000	1.001419	-2.021491	19.441283	1.081931	0.018883	34.288713	-6.160551	0.000000	0.129070	0.551383	-0.799803	0.239696	0.733339	-0.849790	0.212049	1.340632	-0.849790	0.147514	1.340632	-0.699827	0.119854	1.124380	-0.649840	0.073750	0.854092	-0.599852	0.921933	6.237353	-4.448263	0.000000	0.000000	27.773753	-1.779960	-2.265808	19.139734	-17.155545	71.809790	51.998983	53.037542	4.821243	-8.826875	6.292668	-10.439964	42.675899	46.378789	67.125479	12.312117	-0.637331
2.166667	1.354408	-6.509216	92.185674	0.224940	0.843487	0.682210	4.472373	3.780968	2.261903	11.060963	0.193050	35.724713	-9.668135	0.000000	0.938782	-2.102471	19.472725	1.065028	0.018588	34.355012	-5.994942	0.000000	0.123725	0.550279	-0.835894	0.229771	0.731871	-0.888137	0.203269	1.337948	-0.888137	0.141406	1.337948	-0.731407	0.114891	1.122129	-0.679163	0.070697	0.852382	-0.626920	0.883759	6.224865	-4.648989	0.000000	0.000000	27.793206	-1.810614	-2.484018	19.015727	-17.008741	72.221729	51.814000	48.733910	4.941746	-8.092119	6.256672	-10.476522	42.981005	46.379682	66.187469	11.802095	0.047787
2.183333	1.417832	-6.465049	92.410862	0.225184	0.843612	0.681576	4.224826	3.897237	2.389857	10.676350	0.186337	35.424256	-10.062360	0.000000	0.870777	-2.196109	19.541135	1.048237	0.018295	34.403511	-5.960399	0.000000	0.120504	0.551053	-0.867554	0.223788	0.732901	-0.921776	0.197976	1.339831	-0.921776	0.137724	1.339831	-0.759110	0.111900	1.123708	-0.704888	0.068856	0.853582	-0.650665	0.860749	6.233626	-4.825074	0.000000	0.000000	27.815863	-1.882652	-2.692744	18.872465	-16.846834	72.447231	51.604236	44.690076	5.393089	-7.259298	6.256640	-10.488401	43.278380	46.324671	65.697213	11.126978	0.486693
2.200000	1.496248	-6.420789	92.597217	0.225426	0.843698	0.680961	3.978392	4.027054	2.540681	10.287733	0.179555	35.107302	-10.448124	0.000000	0.798734	-2.301708	19.555387	1.030833	0.017991	34.466038	-5.939776	0.000000	0.118880	0.555221	-0.897100	0.220773	0.738444	-0.953169	0.195308	1.349964	-0.953169	0.135868	1.349964	-0.784963	0.110392	1.132207	-0.728894	0.067928	0.860037	-0.672825	0.849150	6.280770	-4.989403	0.000000	0.000000	27.833328	-1.921184	-2.752999	18.830360	-16.682745	72.774865	51.387142	40.890708	5.845766	-6.524417	6.297588	-10.471071	43.503317	46.199637	65.704172	10.451282	0.709677
2.216667	1.582254	-6.383074	92.738962	0.225725	0.843751	0.680441	3.773961	4.162336	2.676016	9.959667	0.173829	34.802658	-10.782027	0.000000	0.736895	-2.414211	19.563929	1.017514	0.017759	34.517189	-5.992385	0.000000	0.119060	0.560280	-0.918596	0.221107	0.745172	-0.976008	0.195604	1.362264	-0.976008	0.136074	1.362264	-0.803771	0.110559	1.142523	-0.746359	0.068031	0.867873	-0.688947	0.850435	6.337998	-5.108955	0.000000	0.000000	27.848291	-1.971725	-2.789416	18.783595	-16.473475	72.896127	51.126156	37.426292	6.617424	-5.698674	6.358316	-10.426907	43.621183	46.045015	66.245740	9.516688	0.707187
2.233333	1.666122	-6.348207	92.825677	0.226050	0.843761	0.680037	3.605857	4.290216	2.795977	9.685330	0.169041	34.527860	-11.042865	0.000000	0.681342	-2.523206	19.487811	1.005938	0.017557	34.584657	-5.989832	0.000000	0.119942	0.565637	-0.931765	0.222745	0.752297	-0.990000	0.197053	1.375289	-0.990000	0.137082	1.375289	-0.815294	0.111378	1.153446	-0.757059	0.068535	0.876171	-0.698824	0.856735	6.398594	-5.182198	0.000000	0.000000	27.854544	-1.990631	-2.763102	18.767855	-16.253026	72.914829	50.861486	34.553848	7.439859	-4.899215	6.448592	-10.365497	43.643225	45.862327	67.251534	8.430931	0.495594
